<svg xmlns="http://www.w3.org/2000/svg" xmlns:xlink="http://www.w3.org/1999/xlink" width="500" zoomAndPan="magnify" viewBox="0 0 375 374.999991" height="500" preserveAspectRatio="xMidYMid meet" version="1.0"><defs><g/><clipPath id="0bdce41dbb"><path d="M 0 37.5 L 187.5 37.5 L 187.5 225 L 0 225 Z M 0 37.5 " clip-rule="nonzero"/></clipPath><clipPath id="8015fcce02"><path d="M 3.589844 61 L 88 61 L 88 202 L 3.589844 202 Z M 3.589844 61 " clip-rule="nonzero"/></clipPath><clipPath id="40889aaa3a"><path d="M 187.5 131.25 L 375 131.25 L 375 318.75 L 187.5 318.75 Z M 187.5 131.25 " clip-rule="nonzero"/></clipPath><clipPath id="38bdbcc9eb"><path d="M 287 155 L 371.25 155 L 371.25 295 L 287 295 Z M 287 155 " clip-rule="nonzero"/></clipPath></defs><g clip-path="url(#0bdce41dbb)"><path fill="#000000" d="M 0 37.5 L 187.5 37.5 L 187.5 225 L 0 225 Z M 0 37.5 " fill-opacity="1" fill-rule="nonzero"/></g><g clip-path="url(#8015fcce02)"><path fill="#d9d9d9" d="M 73.171875 124.40625 L 87.125 124.425781 L 87.125 120.078125 L 73.097656 120.078125 L 79.15625 82.015625 L 87.125 82.015625 L 87.125 77.664062 L 75.042969 77.664062 L 46.730469 71.578125 L 68.84375 65.78125 L 87.125 65.78125 L 87.125 61.433594 L 68.28125 61.433594 L 36.296875 69.8125 L 3.589844 98.859375 L 87.125 201.066406 Z M 74.578125 82.015625 L 74.75 82.015625 L 68.742188 119.777344 L 43.769531 115.976562 L 59.21875 78.710938 Z M 37.972656 74.144531 L 54.894531 77.78125 L 39.613281 114.640625 L 10.347656 98.671875 Z M 15.316406 106.335938 L 39.109375 119.320312 L 68.394531 171.28125 Z M 44.78125 120.53125 L 68.703125 124.171875 L 79.753906 182.574219 Z M 44.78125 120.53125 " fill-opacity="1" fill-rule="nonzero"/></g><g clip-path="url(#40889aaa3a)"><path fill="#d9d9d9" d="M 187.5 131.25 L 375 131.25 L 375 318.75 L 187.5 318.75 Z M 187.5 131.25 " fill-opacity="1" fill-rule="nonzero"/></g><g clip-path="url(#38bdbcc9eb)"><path fill="#000000" d="M 301.816406 218.15625 L 287.863281 218.175781 L 287.863281 213.828125 L 301.890625 213.828125 L 295.835938 175.765625 L 287.863281 175.765625 L 287.863281 171.414062 L 299.949219 171.414062 L 328.261719 165.328125 L 306.148438 159.53125 L 287.863281 159.53125 L 287.863281 155.183594 L 306.707031 155.183594 L 338.691406 163.5625 L 371.402344 192.609375 L 287.863281 294.816406 Z M 300.410156 175.765625 L 300.238281 175.765625 L 306.246094 213.527344 L 331.222656 209.726562 L 315.769531 172.460938 Z M 337.019531 167.894531 L 320.09375 171.53125 L 335.375 208.390625 L 364.640625 192.421875 Z M 359.671875 200.085938 L 335.882812 213.070312 L 306.59375 265.03125 Z M 330.207031 214.28125 L 306.289062 217.921875 L 295.238281 276.324219 Z M 330.207031 214.28125 " fill-opacity="1" fill-rule="nonzero"/></g><g fill="#000000" fill-opacity="1"><g transform="translate(103.266288, 187.60452)"><g><path d="M 21.125 -14.171875 C 21.28125 -13.898438 21.332031 -13.550781 21.28125 -13.125 C 21.226562 -12.695312 21.078125 -12.238281 20.828125 -11.75 C 20.253906 -10.644531 19.429688 -9.757812 18.359375 -9.09375 C 17.285156 -8.425781 16.144531 -7.96875 14.9375 -7.71875 C 14.613281 -7.09375 14.296875 -6.484375 13.984375 -5.890625 C 13.671875 -5.296875 13.394531 -4.769531 13.15625 -4.3125 C 12.925781 -3.851562 12.753906 -3.515625 12.640625 -3.296875 C 12.554688 -3.128906 12.457031 -2.894531 12.34375 -2.59375 C 12.226562 -2.300781 12.148438 -2 12.109375 -1.6875 C 12.066406 -1.375 12.117188 -1.09375 12.265625 -0.84375 C 12.390625 -0.632812 12.570312 -0.5 12.8125 -0.4375 C 13.050781 -0.382812 13.285156 -0.359375 13.515625 -0.359375 C 14.378906 -0.359375 15.15625 -0.660156 15.84375 -1.265625 C 16.53125 -1.878906 17.265625 -2.664062 18.046875 -3.625 C 18.085938 -3.664062 18.140625 -3.6875 18.203125 -3.6875 C 18.242188 -3.6875 18.289062 -3.671875 18.34375 -3.640625 C 18.425781 -3.566406 18.429688 -3.46875 18.359375 -3.34375 C 17.960938 -2.875 17.582031 -2.4375 17.21875 -2.03125 C 16.863281 -1.625 16.488281 -1.265625 16.09375 -0.953125 C 15.25 -0.285156 14.390625 0.046875 13.515625 0.046875 C 13.203125 0.046875 12.894531 0.00390625 12.59375 -0.078125 C 12.300781 -0.171875 12.066406 -0.363281 11.890625 -0.65625 C 11.734375 -0.9375 11.664062 -1.25 11.6875 -1.59375 C 11.707031 -1.945312 11.78125 -2.289062 11.90625 -2.625 C 12.03125 -2.957031 12.148438 -3.238281 12.265625 -3.46875 C 12.367188 -3.675781 12.53125 -3.992188 12.75 -4.421875 C 12.976562 -4.847656 13.234375 -5.34375 13.515625 -5.90625 C 13.804688 -6.46875 14.109375 -7.039062 14.421875 -7.625 C 13.347656 -7.507812 12.269531 -7.375 11.1875 -7.21875 C 10.113281 -7.0625 9.035156 -6.867188 7.953125 -6.640625 C 7.503906 -5.898438 7.066406 -5.195312 6.640625 -4.53125 C 6.222656 -3.875 5.894531 -3.363281 5.65625 -3 C 5.382812 -2.59375 5.039062 -2.164062 4.625 -1.71875 C 4.207031 -1.269531 3.75 -0.890625 3.25 -0.578125 C 2.757812 -0.265625 2.238281 -0.109375 1.6875 -0.109375 C 1.15625 -0.109375 0.742188 -0.265625 0.453125 -0.578125 C 0.160156 -0.898438 0.0078125 -1.320312 0 -1.84375 C -0.0820312 -3.75 1.695312 -5.269531 5.34375 -6.40625 C 5.726562 -6.519531 6.117188 -6.625 6.515625 -6.71875 C 6.910156 -6.820312 7.304688 -6.914062 7.703125 -7 C 8.085938 -7.625 8.46875 -8.242188 8.84375 -8.859375 C 9.21875 -9.484375 9.566406 -10.0625 9.890625 -10.59375 C 10.222656 -11.132812 10.488281 -11.582031 10.6875 -11.9375 C 11.0625 -12.644531 11.085938 -13.234375 10.765625 -13.703125 C 10.628906 -13.921875 10.425781 -14.09375 10.15625 -14.21875 C 9.894531 -14.34375 9.617188 -14.40625 9.328125 -14.40625 C 9.273438 -14.40625 9.226562 -14.398438 9.1875 -14.390625 C 9.144531 -14.390625 9.101562 -14.390625 9.0625 -14.390625 C 8.582031 -14.347656 8.160156 -14.175781 7.796875 -13.875 C 7.429688 -13.570312 7.148438 -13.175781 6.953125 -12.6875 C 6.941406 -12.601562 6.878906 -12.5625 6.765625 -12.5625 C 6.722656 -12.5625 6.695312 -12.566406 6.6875 -12.578125 C 6.570312 -12.617188 6.535156 -12.703125 6.578125 -12.828125 C 6.773438 -13.359375 7.085938 -13.804688 7.515625 -14.171875 C 7.953125 -14.546875 8.453125 -14.753906 9.015625 -14.796875 C 9.078125 -14.804688 9.128906 -14.8125 9.171875 -14.8125 C 9.222656 -14.8125 9.28125 -14.8125 9.34375 -14.8125 C 9.707031 -14.8125 10.046875 -14.734375 10.359375 -14.578125 C 10.671875 -14.421875 10.921875 -14.207031 11.109375 -13.9375 C 11.535156 -13.3125 11.515625 -12.582031 11.046875 -11.75 C 10.742188 -11.21875 10.335938 -10.535156 9.828125 -9.703125 C 9.316406 -8.867188 8.789062 -8.007812 8.25 -7.125 C 9.445312 -7.363281 10.550781 -7.546875 11.5625 -7.671875 C 12.582031 -7.804688 13.316406 -7.898438 13.765625 -7.953125 C 14.097656 -7.984375 14.394531 -8.03125 14.65625 -8.09375 C 15.082031 -8.882812 15.488281 -9.628906 15.875 -10.328125 C 16.257812 -11.035156 16.546875 -11.554688 16.734375 -11.890625 C 16.890625 -12.160156 17.085938 -12.460938 17.328125 -12.796875 C 17.566406 -13.128906 17.832031 -13.445312 18.125 -13.75 C 18.425781 -14.0625 18.742188 -14.316406 19.078125 -14.515625 C 19.421875 -14.710938 19.765625 -14.8125 20.109375 -14.8125 C 20.546875 -14.8125 20.882812 -14.597656 21.125 -14.171875 Z M 5.3125 -3.234375 C 5.539062 -3.578125 5.835938 -4.035156 6.203125 -4.609375 C 6.578125 -5.191406 6.976562 -5.832031 7.40625 -6.53125 C 6.8125 -6.375 6.171875 -6.195312 5.484375 -6 C 4.804688 -5.800781 4.144531 -5.566406 3.5 -5.296875 C 2.863281 -5.023438 2.300781 -4.695312 1.8125 -4.3125 C 0.832031 -3.59375 0.363281 -2.78125 0.40625 -1.875 C 0.414062 -1.476562 0.519531 -1.148438 0.71875 -0.890625 C 0.914062 -0.640625 1.222656 -0.515625 1.640625 -0.515625 C 2.140625 -0.515625 2.71875 -0.722656 3.375 -1.140625 C 4.03125 -1.566406 4.675781 -2.265625 5.3125 -3.234375 Z M 20.46875 -11.9375 C 20.707031 -12.40625 20.84375 -12.816406 20.875 -13.171875 C 20.914062 -13.535156 20.890625 -13.804688 20.796875 -13.984375 C 20.640625 -14.253906 20.410156 -14.394531 20.109375 -14.40625 C 19.671875 -14.40625 19.171875 -14.148438 18.609375 -13.640625 C 18.046875 -13.140625 17.539062 -12.492188 17.09375 -11.703125 C 16.90625 -11.390625 16.632812 -10.910156 16.28125 -10.265625 C 15.9375 -9.617188 15.570312 -8.925781 15.1875 -8.1875 C 16.070312 -8.40625 16.828125 -8.679688 17.453125 -9.015625 C 18.078125 -9.359375 18.59375 -9.722656 19 -10.109375 C 19.414062 -10.492188 19.738281 -10.847656 19.96875 -11.171875 C 20.207031 -11.492188 20.375 -11.75 20.46875 -11.9375 Z M 20.46875 -11.9375 "/></g></g></g><g fill="#000000" fill-opacity="1"><g transform="translate(121.308871, 187.60452)"><g><path d="M 8.625 -3.625 C 8.675781 -3.675781 8.722656 -3.703125 8.765625 -3.703125 C 8.804688 -3.703125 8.847656 -3.679688 8.890625 -3.640625 C 9.003906 -3.566406 9.019531 -3.472656 8.9375 -3.359375 C 8.90625 -3.316406 8.875 -3.273438 8.84375 -3.234375 C 8.8125 -3.191406 8.769531 -3.15625 8.71875 -3.125 C 8.34375 -2.65625 7.953125 -2.191406 7.546875 -1.734375 C 7.148438 -1.285156 6.757812 -0.898438 6.375 -0.578125 C 6 -0.265625 5.625 -0.0703125 5.25 0 C 5.082031 0.0390625 4.921875 0.0625 4.765625 0.0625 C 4.367188 0.0625 4.070312 -0.0625 3.875 -0.3125 C 3.726562 -0.507812 3.648438 -0.753906 3.640625 -1.046875 C 3.640625 -1.335938 3.675781 -1.632812 3.75 -1.9375 C 3.375 -1.457031 2.941406 -1.003906 2.453125 -0.578125 C 1.960938 -0.160156 1.394531 0.046875 0.75 0.046875 C 0.21875 0.046875 -0.148438 -0.117188 -0.359375 -0.453125 C -0.617188 -0.785156 -0.691406 -1.28125 -0.578125 -1.9375 C -0.535156 -2.175781 -0.46875 -2.429688 -0.375 -2.703125 C -0.289062 -2.972656 -0.1875 -3.226562 -0.0625 -3.46875 C 0.0507812 -3.675781 0.226562 -4.023438 0.46875 -4.515625 C 0.71875 -5.003906 1.023438 -5.578125 1.390625 -6.234375 C 1.410156 -6.304688 1.460938 -6.34375 1.546875 -6.34375 C 1.597656 -6.34375 1.632812 -6.335938 1.65625 -6.328125 C 1.757812 -6.253906 1.789062 -6.160156 1.75 -6.046875 C 1.394531 -5.390625 1.09375 -4.816406 0.84375 -4.328125 C 0.59375 -3.835938 0.410156 -3.492188 0.296875 -3.296875 C 0.0664062 -2.859375 -0.0859375 -2.378906 -0.171875 -1.859375 C -0.265625 -1.335938 -0.222656 -0.945312 -0.046875 -0.6875 C 0.109375 -0.46875 0.375 -0.359375 0.75 -0.359375 C 0.800781 -0.359375 0.851562 -0.359375 0.90625 -0.359375 C 0.96875 -0.359375 1.023438 -0.367188 1.078125 -0.390625 C 1.503906 -0.453125 1.914062 -0.648438 2.3125 -0.984375 C 2.71875 -1.316406 3.097656 -1.734375 3.453125 -2.234375 C 3.816406 -2.734375 4.148438 -3.25 4.453125 -3.78125 C 4.765625 -4.320312 5.046875 -4.828125 5.296875 -5.296875 C 5.398438 -5.484375 5.492188 -5.65625 5.578125 -5.8125 C 5.660156 -5.976562 5.742188 -6.132812 5.828125 -6.28125 C 5.867188 -6.351562 5.925781 -6.390625 6 -6.390625 C 6.039062 -6.390625 6.078125 -6.378906 6.109375 -6.359375 C 6.222656 -6.285156 6.25 -6.195312 6.1875 -6.09375 C 6.1875 -6.070312 6.117188 -5.941406 5.984375 -5.703125 C 5.847656 -5.460938 5.691406 -5.175781 5.515625 -4.84375 C 5.335938 -4.507812 5.164062 -4.195312 5 -3.90625 C 4.84375 -3.613281 4.738281 -3.410156 4.6875 -3.296875 C 4.4375 -2.785156 4.242188 -2.265625 4.109375 -1.734375 C 3.984375 -1.203125 4.007812 -0.816406 4.1875 -0.578125 C 4.289062 -0.429688 4.484375 -0.359375 4.765625 -0.359375 C 4.835938 -0.359375 4.910156 -0.363281 4.984375 -0.375 C 5.054688 -0.382812 5.125 -0.394531 5.1875 -0.40625 C 5.445312 -0.457031 5.734375 -0.609375 6.046875 -0.859375 C 6.367188 -1.117188 6.695312 -1.421875 7.03125 -1.765625 C 7.363281 -2.109375 7.664062 -2.445312 7.9375 -2.78125 C 8.21875 -3.125 8.445312 -3.40625 8.625 -3.625 Z M 8.625 -3.625 "/></g></g></g><g fill="#000000" fill-opacity="1"><g transform="translate(129.925906, 187.60452)"><g><path d="M 14.515625 -3.640625 C 14.628906 -3.554688 14.632812 -3.460938 14.53125 -3.359375 C 14.320312 -3.085938 14.035156 -2.757812 13.671875 -2.375 C 13.304688 -2 12.914062 -1.625 12.5 -1.25 C 12.082031 -0.875 11.660156 -0.5625 11.234375 -0.3125 C 10.804688 -0.0625 10.410156 0.0625 10.046875 0.0625 C 9.691406 0.0625 9.414062 -0.0546875 9.21875 -0.296875 C 9 -0.535156 8.882812 -0.867188 8.875 -1.296875 C 8.875 -1.722656 8.976562 -2.191406 9.1875 -2.703125 C 9.257812 -2.890625 9.34375 -3.070312 9.4375 -3.25 C 9.539062 -3.4375 9.644531 -3.625 9.75 -3.8125 C 9.945312 -4.207031 10.125 -4.582031 10.28125 -4.9375 C 10.445312 -5.300781 10.472656 -5.578125 10.359375 -5.765625 C 10.265625 -5.929688 10.039062 -6.023438 9.6875 -6.046875 C 9.1875 -6.046875 8.691406 -5.90625 8.203125 -5.625 C 7.710938 -5.351562 7.238281 -4.992188 6.78125 -4.546875 C 6.320312 -4.097656 5.882812 -3.609375 5.46875 -3.078125 C 5.0625 -2.554688 4.691406 -2.039062 4.359375 -1.53125 C 4.023438 -1.03125 3.742188 -0.59375 3.515625 -0.21875 C 3.472656 -0.125 3.429688 -0.0546875 3.390625 -0.015625 C 3.328125 0.0664062 3.269531 0.113281 3.21875 0.125 C 3.195312 0.125 3.1875 0.125 3.1875 0.125 C 3.1875 0.125 3.179688 0.125 3.171875 0.125 C 3.109375 0.125 3.070312 0.117188 3.0625 0.109375 C 3.050781 0.0859375 3.023438 0.0507812 2.984375 0 C 2.953125 -0.0390625 2.957031 -0.101562 3 -0.1875 C 3.007812 -0.207031 3.015625 -0.21875 3.015625 -0.21875 C 3.015625 -0.226562 3.023438 -0.238281 3.046875 -0.25 C 3.066406 -0.28125 3.085938 -0.3125 3.109375 -0.34375 C 3.140625 -0.382812 3.164062 -0.429688 3.1875 -0.484375 C 3.363281 -0.753906 3.609375 -1.144531 3.921875 -1.65625 C 4.242188 -2.164062 4.539062 -2.707031 4.8125 -3.28125 C 5.101562 -3.875 5.296875 -4.34375 5.390625 -4.6875 C 5.492188 -5.039062 5.539062 -5.304688 5.53125 -5.484375 C 5.53125 -5.671875 5.507812 -5.800781 5.46875 -5.875 C 5.457031 -5.90625 5.421875 -5.941406 5.359375 -5.984375 C 5.304688 -6.023438 5.191406 -6.046875 5.015625 -6.046875 C 5.003906 -6.046875 4.984375 -6.046875 4.953125 -6.046875 C 4.929688 -6.046875 4.90625 -6.046875 4.875 -6.046875 C 3.78125 -5.929688 2.375 -4.867188 0.65625 -2.859375 C 0.21875 -2.335938 -0.164062 -1.847656 -0.5 -1.390625 C -0.832031 -0.929688 -1.097656 -0.550781 -1.296875 -0.25 C -1.492188 0.0390625 -1.601562 0.1875 -1.625 0.1875 C -1.664062 0.257812 -1.71875 0.296875 -1.78125 0.296875 C -1.820312 0.296875 -1.859375 0.289062 -1.890625 0.28125 C -1.992188 0.195312 -2.015625 0.101562 -1.953125 0 C -1.867188 -0.15625 -1.703125 -0.46875 -1.453125 -0.9375 C -1.203125 -1.40625 -0.90625 -1.953125 -0.5625 -2.578125 C -0.226562 -3.203125 0.113281 -3.832031 0.46875 -4.46875 C 0.832031 -5.101562 1.160156 -5.675781 1.453125 -6.1875 C 1.492188 -6.257812 1.550781 -6.296875 1.625 -6.296875 C 1.664062 -6.296875 1.695312 -6.289062 1.71875 -6.28125 C 1.820312 -6.21875 1.851562 -6.125 1.8125 -6 C 1.425781 -5.332031 1.070312 -4.707031 0.75 -4.125 C 0.4375 -3.539062 0.148438 -3.015625 -0.109375 -2.546875 C 0.160156 -2.890625 0.484375 -3.273438 0.859375 -3.703125 C 1.234375 -4.128906 1.644531 -4.539062 2.09375 -4.9375 C 2.539062 -5.34375 3 -5.6875 3.46875 -5.96875 C 3.9375 -6.25 4.390625 -6.410156 4.828125 -6.453125 C 5.015625 -6.453125 5.195312 -6.429688 5.375 -6.390625 C 5.5625 -6.359375 5.707031 -6.257812 5.8125 -6.09375 C 6.082031 -5.644531 5.96875 -4.847656 5.46875 -3.703125 C 5.5 -3.742188 5.53125 -3.78125 5.5625 -3.8125 C 5.601562 -3.851562 5.632812 -3.894531 5.65625 -3.9375 C 6.007812 -4.332031 6.390625 -4.722656 6.796875 -5.109375 C 7.210938 -5.492188 7.664062 -5.8125 8.15625 -6.0625 C 8.644531 -6.320312 9.164062 -6.453125 9.71875 -6.453125 C 10.25 -6.410156 10.582031 -6.242188 10.71875 -5.953125 C 10.875 -5.671875 10.867188 -5.320312 10.703125 -4.90625 C 10.546875 -4.5 10.347656 -4.070312 10.109375 -3.625 C 10.003906 -3.4375 9.90625 -3.253906 9.8125 -3.078125 C 9.726562 -2.898438 9.648438 -2.722656 9.578125 -2.546875 C 9.410156 -2.128906 9.316406 -1.738281 9.296875 -1.375 C 9.285156 -1.007812 9.359375 -0.734375 9.515625 -0.546875 C 9.648438 -0.410156 9.828125 -0.34375 10.046875 -0.34375 C 10.179688 -0.34375 10.300781 -0.363281 10.40625 -0.40625 C 10.84375 -0.519531 11.40625 -0.863281 12.09375 -1.4375 C 12.78125 -2.019531 13.492188 -2.75 14.234375 -3.625 C 14.296875 -3.675781 14.347656 -3.703125 14.390625 -3.703125 C 14.429688 -3.703125 14.472656 -3.679688 14.515625 -3.640625 Z M 14.515625 -3.640625 "/></g></g></g><g fill="#000000" fill-opacity="1"><g transform="translate(144.159981, 187.60452)"><g><path d="M 9.359375 -3.640625 C 9.472656 -3.535156 9.484375 -3.4375 9.390625 -3.34375 C 8.941406 -2.8125 8.441406 -2.375 7.890625 -2.03125 C 7.335938 -1.695312 6.707031 -1.53125 6 -1.53125 C 5.769531 -1.53125 5.535156 -1.546875 5.296875 -1.578125 C 5.066406 -1.617188 4.84375 -1.664062 4.625 -1.71875 C 4.164062 -1.195312 3.648438 -0.765625 3.078125 -0.421875 C 2.503906 -0.0859375 1.863281 0.078125 1.15625 0.078125 C 0.539062 0.0351562 0.128906 -0.191406 -0.078125 -0.609375 C -0.234375 -0.972656 -0.179688 -1.34375 0.078125 -1.71875 C 0.328125 -2.070312 0.617188 -2.316406 0.953125 -2.453125 C 1.285156 -2.585938 1.628906 -2.65625 1.984375 -2.65625 C 2.304688 -2.65625 2.644531 -2.613281 3 -2.53125 C 3.351562 -2.457031 3.703125 -2.375 4.046875 -2.28125 C 4.117188 -2.257812 4.1875 -2.242188 4.25 -2.234375 C 4.320312 -2.222656 4.394531 -2.203125 4.46875 -2.171875 C 4.726562 -2.492188 4.957031 -2.832031 5.15625 -3.1875 C 5.363281 -3.539062 5.492188 -3.925781 5.546875 -4.34375 C 5.640625 -4.820312 5.585938 -5.210938 5.390625 -5.515625 C 5.171875 -5.867188 4.785156 -6.046875 4.234375 -6.046875 C 3.640625 -6.046875 3.085938 -5.890625 2.578125 -5.578125 C 2.066406 -5.265625 1.609375 -4.875 1.203125 -4.40625 C 0.796875 -3.9375 0.445312 -3.46875 0.15625 -3 C -0.21875 -2.34375 -0.535156 -1.785156 -0.796875 -1.328125 C -1.054688 -0.867188 -1.222656 -0.5625 -1.296875 -0.40625 C -1.304688 -0.320312 -1.363281 -0.28125 -1.46875 -0.28125 C -1.476562 -0.28125 -1.488281 -0.28125 -1.5 -0.28125 C -1.519531 -0.289062 -1.546875 -0.296875 -1.578125 -0.296875 C -1.691406 -0.378906 -1.71875 -0.472656 -1.65625 -0.578125 C -1.425781 -1.023438 -1.191406 -1.46875 -0.953125 -1.90625 C -0.722656 -2.351562 -0.476562 -2.789062 -0.21875 -3.21875 C 0.226562 -4 0.722656 -4.875 1.265625 -5.84375 C 1.804688 -6.8125 2.359375 -7.789062 2.921875 -8.78125 C 3.492188 -9.78125 4.035156 -10.722656 4.546875 -11.609375 C 5.054688 -12.503906 5.492188 -13.273438 5.859375 -13.921875 C 6.234375 -14.566406 6.492188 -15.019531 6.640625 -15.28125 C 6.679688 -15.351562 6.742188 -15.390625 6.828125 -15.390625 C 6.867188 -15.390625 6.898438 -15.378906 6.921875 -15.359375 C 7.046875 -15.273438 7.070312 -15.1875 7 -15.09375 C 6.84375 -14.820312 6.566406 -14.335938 6.171875 -13.640625 C 5.773438 -12.941406 5.300781 -12.117188 4.75 -11.171875 C 4.207031 -10.222656 3.640625 -9.21875 3.046875 -8.15625 C 2.453125 -7.101562 1.875 -6.085938 1.3125 -5.109375 C 1.414062 -5.203125 1.492188 -5.269531 1.546875 -5.3125 C 1.921875 -5.644531 2.335938 -5.921875 2.796875 -6.140625 C 3.253906 -6.359375 3.726562 -6.46875 4.21875 -6.46875 C 4.90625 -6.46875 5.40625 -6.226562 5.71875 -5.75 C 5.96875 -5.363281 6.046875 -4.882812 5.953125 -4.3125 C 5.867188 -3.75 5.644531 -3.175781 5.28125 -2.59375 C 5.21875 -2.5 5.15625 -2.40625 5.09375 -2.3125 C 5.03125 -2.226562 4.960938 -2.144531 4.890625 -2.0625 C 4.953125 -2.050781 5.003906 -2.039062 5.046875 -2.03125 C 5.097656 -2.019531 5.15625 -2.015625 5.21875 -2.015625 C 5.351562 -2.003906 5.488281 -1.988281 5.625 -1.96875 C 5.757812 -1.945312 5.890625 -1.9375 6.015625 -1.9375 C 6.597656 -1.9375 7.128906 -2.070312 7.609375 -2.34375 C 8.097656 -2.625 8.59375 -3.050781 9.09375 -3.625 C 9.132812 -3.664062 9.179688 -3.6875 9.234375 -3.6875 C 9.265625 -3.6875 9.304688 -3.671875 9.359375 -3.640625 Z M 0.296875 -0.78125 C 0.378906 -0.601562 0.53125 -0.484375 0.75 -0.421875 C 0.96875 -0.367188 1.171875 -0.34375 1.359375 -0.34375 C 1.734375 -0.34375 2.171875 -0.453125 2.671875 -0.671875 C 3.171875 -0.898438 3.671875 -1.285156 4.171875 -1.828125 C 4.054688 -1.859375 3.976562 -1.878906 3.9375 -1.890625 C 3.613281 -1.972656 3.285156 -2.050781 2.953125 -2.125 C 2.617188 -2.207031 2.296875 -2.25 1.984375 -2.25 C 1.316406 -2.25 0.796875 -1.992188 0.421875 -1.484375 C 0.242188 -1.234375 0.203125 -1 0.296875 -0.78125 Z M 0.296875 -0.78125 "/></g></g></g><g fill="#000000" fill-opacity="1"><g transform="translate(153.245108, 187.60452)"><g><path d="M 5.875 -3.359375 C 5.613281 -3.035156 5.300781 -2.671875 4.9375 -2.265625 C 4.570312 -1.859375 4.171875 -1.472656 3.734375 -1.109375 C 3.296875 -0.753906 2.847656 -0.457031 2.390625 -0.21875 C 1.929688 0.0078125 1.484375 0.125 1.046875 0.125 C 0.304688 0.113281 -0.195312 -0.125 -0.46875 -0.59375 C -0.632812 -0.875 -0.707031 -1.1875 -0.6875 -1.53125 C -0.664062 -1.882812 -0.59375 -2.226562 -0.46875 -2.5625 C -0.34375 -2.894531 -0.222656 -3.175781 -0.109375 -3.40625 C 0.00390625 -3.632812 0.21875 -4.046875 0.53125 -4.640625 C 0.84375 -5.234375 1.210938 -5.929688 1.640625 -6.734375 C 2.066406 -7.546875 2.515625 -8.390625 2.984375 -9.265625 C 3.453125 -10.148438 3.90625 -11.003906 4.34375 -11.828125 C 4.78125 -12.648438 5.160156 -13.363281 5.484375 -13.96875 C 5.816406 -14.582031 6.050781 -15.015625 6.1875 -15.265625 C 6.226562 -15.328125 6.296875 -15.359375 6.390625 -15.359375 C 6.429688 -15.359375 6.457031 -15.351562 6.46875 -15.34375 C 6.582031 -15.269531 6.609375 -15.175781 6.546875 -15.0625 C 6.410156 -14.8125 6.171875 -14.375 5.828125 -13.75 C 5.484375 -13.125 5.085938 -12.394531 4.640625 -11.5625 C 4.203125 -10.738281 3.75 -9.878906 3.28125 -8.984375 C 2.8125 -8.097656 2.363281 -7.25 1.9375 -6.4375 C 1.507812 -5.632812 1.144531 -4.945312 0.84375 -4.375 C 0.550781 -3.800781 0.351562 -3.421875 0.25 -3.234375 C -0.300781 -2.128906 -0.425781 -1.320312 -0.125 -0.8125 C 0 -0.59375 0.175781 -0.453125 0.40625 -0.390625 C 0.644531 -0.328125 0.878906 -0.296875 1.109375 -0.296875 C 1.492188 -0.296875 1.894531 -0.410156 2.3125 -0.640625 C 2.738281 -0.878906 3.15625 -1.175781 3.5625 -1.53125 C 3.976562 -1.882812 4.359375 -2.25 4.703125 -2.625 C 5.054688 -3 5.335938 -3.332031 5.546875 -3.625 C 5.597656 -3.664062 5.65625 -3.6875 5.71875 -3.6875 C 5.75 -3.6875 5.796875 -3.671875 5.859375 -3.640625 C 5.960938 -3.554688 5.96875 -3.460938 5.875 -3.359375 Z M 5.875 -3.359375 "/></g></g></g><g fill="#000000" fill-opacity="1"><g transform="translate(158.798313, 187.60452)"><g><path d="M 8.296875 -3.625 C 8.410156 -3.53125 8.421875 -3.4375 8.328125 -3.34375 C 7.867188 -2.8125 7.34375 -2.273438 6.75 -1.734375 C 6.15625 -1.203125 5.507812 -0.753906 4.8125 -0.390625 C 4.113281 -0.0234375 3.390625 0.15625 2.640625 0.15625 C 2.535156 0.15625 2.4375 0.148438 2.34375 0.140625 C 2.257812 0.128906 2.171875 0.117188 2.078125 0.109375 C 1.367188 0.00390625 0.851562 -0.195312 0.53125 -0.5 C 0.21875 -0.800781 0.00390625 -1.097656 -0.109375 -1.390625 C -0.316406 -1.921875 -0.320312 -2.53125 -0.125 -3.21875 C 0 -3.664062 0.222656 -4.132812 0.546875 -4.625 C 0.878906 -5.113281 1.269531 -5.53125 1.71875 -5.875 C 2.164062 -6.226562 2.644531 -6.40625 3.15625 -6.40625 C 3.445312 -6.40625 3.71875 -6.328125 3.96875 -6.171875 C 4.21875 -6.015625 4.382812 -5.785156 4.46875 -5.484375 C 4.582031 -5.128906 4.546875 -4.734375 4.359375 -4.296875 C 4.179688 -3.867188 3.867188 -3.441406 3.421875 -3.015625 C 2.835938 -2.453125 2.269531 -2.003906 1.71875 -1.671875 C 1.164062 -1.347656 0.785156 -1.128906 0.578125 -1.015625 C 0.816406 -0.742188 1.132812 -0.546875 1.53125 -0.421875 C 1.925781 -0.304688 2.300781 -0.25 2.65625 -0.25 C 3.351562 -0.25 4.03125 -0.425781 4.6875 -0.78125 C 5.351562 -1.132812 5.972656 -1.570312 6.546875 -2.09375 C 7.117188 -2.625 7.609375 -3.132812 8.015625 -3.625 C 8.066406 -3.664062 8.113281 -3.6875 8.15625 -3.6875 C 8.207031 -3.6875 8.253906 -3.664062 8.296875 -3.625 Z M 0.34375 -1.359375 C 0.5 -1.429688 0.851562 -1.628906 1.40625 -1.953125 C 1.96875 -2.285156 2.550781 -2.738281 3.15625 -3.3125 C 3.519531 -3.6875 3.78125 -4.050781 3.9375 -4.40625 C 4.101562 -4.769531 4.15625 -5.085938 4.09375 -5.359375 C 3.976562 -5.691406 3.75 -5.898438 3.40625 -5.984375 C 3.363281 -5.984375 3.320312 -5.984375 3.28125 -5.984375 C 3.238281 -5.992188 3.195312 -6 3.15625 -6 C 2.894531 -6 2.597656 -5.914062 2.265625 -5.75 C 1.929688 -5.59375 1.59375 -5.304688 1.25 -4.890625 C 0.769531 -4.304688 0.441406 -3.710938 0.265625 -3.109375 C 0.0859375 -2.515625 0.0820312 -1.988281 0.25 -1.53125 C 0.269531 -1.5 0.285156 -1.46875 0.296875 -1.4375 C 0.304688 -1.414062 0.320312 -1.390625 0.34375 -1.359375 Z M 0.34375 -1.359375 "/></g></g></g><g fill="#000000" fill-opacity="1"><g transform="translate(107.172537, 216.859837)"><g><path d="M 21.125 -14.171875 C 21.28125 -13.898438 21.332031 -13.550781 21.28125 -13.125 C 21.226562 -12.695312 21.078125 -12.238281 20.828125 -11.75 C 20.253906 -10.644531 19.429688 -9.757812 18.359375 -9.09375 C 17.285156 -8.425781 16.144531 -7.96875 14.9375 -7.71875 C 14.613281 -7.09375 14.296875 -6.484375 13.984375 -5.890625 C 13.671875 -5.296875 13.394531 -4.769531 13.15625 -4.3125 C 12.925781 -3.851562 12.753906 -3.515625 12.640625 -3.296875 C 12.554688 -3.128906 12.457031 -2.894531 12.34375 -2.59375 C 12.226562 -2.300781 12.148438 -2 12.109375 -1.6875 C 12.066406 -1.375 12.117188 -1.09375 12.265625 -0.84375 C 12.390625 -0.632812 12.570312 -0.5 12.8125 -0.4375 C 13.050781 -0.382812 13.285156 -0.359375 13.515625 -0.359375 C 14.378906 -0.359375 15.15625 -0.660156 15.84375 -1.265625 C 16.53125 -1.878906 17.265625 -2.664062 18.046875 -3.625 C 18.085938 -3.664062 18.140625 -3.6875 18.203125 -3.6875 C 18.242188 -3.6875 18.289062 -3.671875 18.34375 -3.640625 C 18.425781 -3.566406 18.429688 -3.46875 18.359375 -3.34375 C 17.960938 -2.875 17.582031 -2.4375 17.21875 -2.03125 C 16.863281 -1.625 16.488281 -1.265625 16.09375 -0.953125 C 15.25 -0.285156 14.390625 0.046875 13.515625 0.046875 C 13.203125 0.046875 12.894531 0.00390625 12.59375 -0.078125 C 12.300781 -0.171875 12.066406 -0.363281 11.890625 -0.65625 C 11.734375 -0.9375 11.664062 -1.25 11.6875 -1.59375 C 11.707031 -1.945312 11.78125 -2.289062 11.90625 -2.625 C 12.03125 -2.957031 12.148438 -3.238281 12.265625 -3.46875 C 12.367188 -3.675781 12.53125 -3.992188 12.75 -4.421875 C 12.976562 -4.847656 13.234375 -5.34375 13.515625 -5.90625 C 13.804688 -6.46875 14.109375 -7.039062 14.421875 -7.625 C 13.347656 -7.507812 12.269531 -7.375 11.1875 -7.21875 C 10.113281 -7.0625 9.035156 -6.867188 7.953125 -6.640625 C 7.503906 -5.898438 7.066406 -5.195312 6.640625 -4.53125 C 6.222656 -3.875 5.894531 -3.363281 5.65625 -3 C 5.382812 -2.59375 5.039062 -2.164062 4.625 -1.71875 C 4.207031 -1.269531 3.75 -0.890625 3.25 -0.578125 C 2.757812 -0.265625 2.238281 -0.109375 1.6875 -0.109375 C 1.15625 -0.109375 0.742188 -0.265625 0.453125 -0.578125 C 0.160156 -0.898438 0.0078125 -1.320312 0 -1.84375 C -0.0820312 -3.75 1.695312 -5.269531 5.34375 -6.40625 C 5.726562 -6.519531 6.117188 -6.625 6.515625 -6.71875 C 6.910156 -6.820312 7.304688 -6.914062 7.703125 -7 C 8.085938 -7.625 8.46875 -8.242188 8.84375 -8.859375 C 9.21875 -9.484375 9.566406 -10.0625 9.890625 -10.59375 C 10.222656 -11.132812 10.488281 -11.582031 10.6875 -11.9375 C 11.0625 -12.644531 11.085938 -13.234375 10.765625 -13.703125 C 10.628906 -13.921875 10.425781 -14.09375 10.15625 -14.21875 C 9.894531 -14.34375 9.617188 -14.40625 9.328125 -14.40625 C 9.273438 -14.40625 9.226562 -14.398438 9.1875 -14.390625 C 9.144531 -14.390625 9.101562 -14.390625 9.0625 -14.390625 C 8.582031 -14.347656 8.160156 -14.175781 7.796875 -13.875 C 7.429688 -13.570312 7.148438 -13.175781 6.953125 -12.6875 C 6.941406 -12.601562 6.878906 -12.5625 6.765625 -12.5625 C 6.722656 -12.5625 6.695312 -12.566406 6.6875 -12.578125 C 6.570312 -12.617188 6.535156 -12.703125 6.578125 -12.828125 C 6.773438 -13.359375 7.085938 -13.804688 7.515625 -14.171875 C 7.953125 -14.546875 8.453125 -14.753906 9.015625 -14.796875 C 9.078125 -14.804688 9.128906 -14.8125 9.171875 -14.8125 C 9.222656 -14.8125 9.28125 -14.8125 9.34375 -14.8125 C 9.707031 -14.8125 10.046875 -14.734375 10.359375 -14.578125 C 10.671875 -14.421875 10.921875 -14.207031 11.109375 -13.9375 C 11.535156 -13.3125 11.515625 -12.582031 11.046875 -11.75 C 10.742188 -11.21875 10.335938 -10.535156 9.828125 -9.703125 C 9.316406 -8.867188 8.789062 -8.007812 8.25 -7.125 C 9.445312 -7.363281 10.550781 -7.546875 11.5625 -7.671875 C 12.582031 -7.804688 13.316406 -7.898438 13.765625 -7.953125 C 14.097656 -7.984375 14.394531 -8.03125 14.65625 -8.09375 C 15.082031 -8.882812 15.488281 -9.628906 15.875 -10.328125 C 16.257812 -11.035156 16.546875 -11.554688 16.734375 -11.890625 C 16.890625 -12.160156 17.085938 -12.460938 17.328125 -12.796875 C 17.566406 -13.128906 17.832031 -13.445312 18.125 -13.75 C 18.425781 -14.0625 18.742188 -14.316406 19.078125 -14.515625 C 19.421875 -14.710938 19.765625 -14.8125 20.109375 -14.8125 C 20.546875 -14.8125 20.882812 -14.597656 21.125 -14.171875 Z M 5.3125 -3.234375 C 5.539062 -3.578125 5.835938 -4.035156 6.203125 -4.609375 C 6.578125 -5.191406 6.976562 -5.832031 7.40625 -6.53125 C 6.8125 -6.375 6.171875 -6.195312 5.484375 -6 C 4.804688 -5.800781 4.144531 -5.566406 3.5 -5.296875 C 2.863281 -5.023438 2.300781 -4.695312 1.8125 -4.3125 C 0.832031 -3.59375 0.363281 -2.78125 0.40625 -1.875 C 0.414062 -1.476562 0.519531 -1.148438 0.71875 -0.890625 C 0.914062 -0.640625 1.222656 -0.515625 1.640625 -0.515625 C 2.140625 -0.515625 2.71875 -0.722656 3.375 -1.140625 C 4.03125 -1.566406 4.675781 -2.265625 5.3125 -3.234375 Z M 20.46875 -11.9375 C 20.707031 -12.40625 20.84375 -12.816406 20.875 -13.171875 C 20.914062 -13.535156 20.890625 -13.804688 20.796875 -13.984375 C 20.640625 -14.253906 20.410156 -14.394531 20.109375 -14.40625 C 19.671875 -14.40625 19.171875 -14.148438 18.609375 -13.640625 C 18.046875 -13.140625 17.539062 -12.492188 17.09375 -11.703125 C 16.90625 -11.390625 16.632812 -10.910156 16.28125 -10.265625 C 15.9375 -9.617188 15.570312 -8.925781 15.1875 -8.1875 C 16.070312 -8.40625 16.828125 -8.679688 17.453125 -9.015625 C 18.078125 -9.359375 18.59375 -9.722656 19 -10.109375 C 19.414062 -10.492188 19.738281 -10.847656 19.96875 -11.171875 C 20.207031 -11.492188 20.375 -11.75 20.46875 -11.9375 Z M 20.46875 -11.9375 "/></g></g></g><g fill="#000000" fill-opacity="1"><g transform="translate(125.215121, 216.859837)"><g><path d="M 8.296875 -3.625 C 8.410156 -3.53125 8.421875 -3.4375 8.328125 -3.34375 C 7.867188 -2.8125 7.34375 -2.273438 6.75 -1.734375 C 6.15625 -1.203125 5.507812 -0.753906 4.8125 -0.390625 C 4.113281 -0.0234375 3.390625 0.15625 2.640625 0.15625 C 2.535156 0.15625 2.4375 0.148438 2.34375 0.140625 C 2.257812 0.128906 2.171875 0.117188 2.078125 0.109375 C 1.367188 0.00390625 0.851562 -0.195312 0.53125 -0.5 C 0.21875 -0.800781 0.00390625 -1.097656 -0.109375 -1.390625 C -0.316406 -1.921875 -0.320312 -2.53125 -0.125 -3.21875 C 0 -3.664062 0.222656 -4.132812 0.546875 -4.625 C 0.878906 -5.113281 1.269531 -5.53125 1.71875 -5.875 C 2.164062 -6.226562 2.644531 -6.40625 3.15625 -6.40625 C 3.445312 -6.40625 3.71875 -6.328125 3.96875 -6.171875 C 4.21875 -6.015625 4.382812 -5.785156 4.46875 -5.484375 C 4.582031 -5.128906 4.546875 -4.734375 4.359375 -4.296875 C 4.179688 -3.867188 3.867188 -3.441406 3.421875 -3.015625 C 2.835938 -2.453125 2.269531 -2.003906 1.71875 -1.671875 C 1.164062 -1.347656 0.785156 -1.128906 0.578125 -1.015625 C 0.816406 -0.742188 1.132812 -0.546875 1.53125 -0.421875 C 1.925781 -0.304688 2.300781 -0.25 2.65625 -0.25 C 3.351562 -0.25 4.03125 -0.425781 4.6875 -0.78125 C 5.351562 -1.132812 5.972656 -1.570312 6.546875 -2.09375 C 7.117188 -2.625 7.609375 -3.132812 8.015625 -3.625 C 8.066406 -3.664062 8.113281 -3.6875 8.15625 -3.6875 C 8.207031 -3.6875 8.253906 -3.664062 8.296875 -3.625 Z M 0.34375 -1.359375 C 0.5 -1.429688 0.851562 -1.628906 1.40625 -1.953125 C 1.96875 -2.285156 2.550781 -2.738281 3.15625 -3.3125 C 3.519531 -3.6875 3.78125 -4.050781 3.9375 -4.40625 C 4.101562 -4.769531 4.15625 -5.085938 4.09375 -5.359375 C 3.976562 -5.691406 3.75 -5.898438 3.40625 -5.984375 C 3.363281 -5.984375 3.320312 -5.984375 3.28125 -5.984375 C 3.238281 -5.992188 3.195312 -6 3.15625 -6 C 2.894531 -6 2.597656 -5.914062 2.265625 -5.75 C 1.929688 -5.59375 1.59375 -5.304688 1.25 -4.890625 C 0.769531 -4.304688 0.441406 -3.710938 0.265625 -3.109375 C 0.0859375 -2.515625 0.0820312 -1.988281 0.25 -1.53125 C 0.269531 -1.5 0.285156 -1.46875 0.296875 -1.4375 C 0.304688 -1.414062 0.320312 -1.390625 0.34375 -1.359375 Z M 0.34375 -1.359375 "/></g></g></g><g fill="#000000" fill-opacity="1"><g transform="translate(133.236414, 216.859837)"><g><path d="M 10.296875 -3.65625 C 10.398438 -3.5625 10.410156 -3.460938 10.328125 -3.359375 C 10.078125 -3.078125 9.785156 -2.757812 9.453125 -2.40625 C 9.117188 -2.050781 8.769531 -1.703125 8.40625 -1.359375 C 8.039062 -1.015625 7.671875 -0.71875 7.296875 -0.46875 C 6.929688 -0.226562 6.59375 -0.0703125 6.28125 0 C 6.175781 0.0078125 6.082031 0.0195312 6 0.03125 C 5.914062 0.0390625 5.835938 0.046875 5.765625 0.046875 C 5.367188 0.046875 5.070312 -0.0820312 4.875 -0.34375 C 4.675781 -0.613281 4.601562 -0.957031 4.65625 -1.375 C 4.71875 -1.800781 4.8125 -2.207031 4.9375 -2.59375 C 4.632812 -2.195312 4.296875 -1.796875 3.921875 -1.390625 C 3.546875 -0.984375 3.128906 -0.644531 2.671875 -0.375 C 2.222656 -0.113281 1.726562 0.015625 1.1875 0.015625 C 0.507812 0.015625 0.0195312 -0.21875 -0.28125 -0.6875 C -0.53125 -1.0625 -0.613281 -1.539062 -0.53125 -2.125 C -0.457031 -2.5625 -0.28125 -3.035156 0 -3.546875 C 0.269531 -4.054688 0.609375 -4.539062 1.015625 -5 C 1.421875 -5.457031 1.851562 -5.828125 2.3125 -6.109375 C 2.78125 -6.390625 3.238281 -6.53125 3.6875 -6.53125 C 3.78125 -6.53125 3.867188 -6.519531 3.953125 -6.5 C 4.046875 -6.488281 4.132812 -6.472656 4.21875 -6.453125 C 4.539062 -6.347656 4.785156 -6.148438 4.953125 -5.859375 C 5.128906 -5.566406 5.203125 -5.222656 5.171875 -4.828125 C 5.171875 -4.703125 5.097656 -4.640625 4.953125 -4.640625 C 4.828125 -4.671875 4.765625 -4.75 4.765625 -4.875 C 4.804688 -5.476562 4.582031 -5.875 4.09375 -6.0625 C 3.957031 -6.101562 3.820312 -6.125 3.6875 -6.125 C 3.257812 -6.125 2.757812 -5.925781 2.1875 -5.53125 C 1.625 -5.144531 1.054688 -4.515625 0.484375 -3.640625 C 0.160156 -3.117188 -0.0351562 -2.609375 -0.109375 -2.109375 C -0.191406 -1.609375 -0.132812 -1.203125 0.0625 -0.890625 C 0.28125 -0.554688 0.648438 -0.390625 1.171875 -0.390625 C 1.648438 -0.390625 2.09375 -0.507812 2.5 -0.75 C 2.914062 -1 3.296875 -1.304688 3.640625 -1.671875 C 3.984375 -2.046875 4.285156 -2.40625 4.546875 -2.75 C 5.015625 -3.34375 5.441406 -3.957031 5.828125 -4.59375 C 6.210938 -5.226562 6.539062 -5.773438 6.8125 -6.234375 L 6.828125 -6.28125 C 6.867188 -6.351562 6.929688 -6.390625 7.015625 -6.390625 C 7.066406 -6.390625 7.097656 -6.378906 7.109375 -6.359375 C 7.203125 -6.304688 7.226562 -6.21875 7.1875 -6.09375 C 7.1875 -6.09375 7.117188 -5.96875 6.984375 -5.71875 C 6.847656 -5.46875 6.691406 -5.175781 6.515625 -4.84375 C 6.335938 -4.507812 6.171875 -4.195312 6.015625 -3.90625 C 5.859375 -3.613281 5.753906 -3.410156 5.703125 -3.296875 C 5.535156 -2.972656 5.390625 -2.628906 5.265625 -2.265625 C 5.148438 -1.898438 5.078125 -1.566406 5.046875 -1.265625 C 5.023438 -0.960938 5.070312 -0.734375 5.1875 -0.578125 C 5.289062 -0.429688 5.484375 -0.359375 5.765625 -0.359375 C 5.835938 -0.359375 5.910156 -0.363281 5.984375 -0.375 C 6.054688 -0.382812 6.125 -0.394531 6.1875 -0.40625 C 6.601562 -0.488281 7.144531 -0.8125 7.8125 -1.375 C 8.488281 -1.9375 9.21875 -2.6875 10 -3.625 C 10.0625 -3.675781 10.125 -3.703125 10.1875 -3.703125 C 10.207031 -3.703125 10.242188 -3.6875 10.296875 -3.65625 Z M 10.296875 -3.65625 "/></g></g></g><g fill="#000000" fill-opacity="1"><g transform="translate(143.236439, 216.859837)"><g><path d="M 8.296875 -3.65625 C 8.398438 -3.5625 8.414062 -3.460938 8.34375 -3.359375 C 8.332031 -3.347656 8.15625 -3.144531 7.8125 -2.75 C 7.46875 -2.351562 7.035156 -1.929688 6.515625 -1.484375 C 6.160156 -1.191406 5.71875 -0.894531 5.1875 -0.59375 C 4.664062 -0.300781 4.15625 -0.15625 3.65625 -0.15625 C 3.519531 -0.15625 3.382812 -0.164062 3.25 -0.1875 C 3.125 -0.21875 3.003906 -0.253906 2.890625 -0.296875 C 2.367188 -0.523438 2.09375 -0.898438 2.0625 -1.421875 C 2.050781 -1.734375 2.125 -2.054688 2.28125 -2.390625 C 2.4375 -2.722656 2.632812 -3.054688 2.875 -3.390625 C 3.113281 -3.722656 3.351562 -4.019531 3.59375 -4.28125 C 3.75 -4.445312 3.898438 -4.601562 4.046875 -4.75 C 4.203125 -4.90625 4.347656 -5.050781 4.484375 -5.1875 C 3.929688 -5.019531 3.414062 -4.9375 2.9375 -4.9375 C 2.707031 -4.9375 2.484375 -4.953125 2.265625 -4.984375 C 2.046875 -5.023438 1.835938 -5.09375 1.640625 -5.1875 C 1.316406 -4.664062 1.023438 -4.238281 0.765625 -3.90625 C 0.515625 -3.582031 0.375 -3.410156 0.34375 -3.390625 C 0.300781 -3.335938 0.242188 -3.3125 0.171875 -3.3125 C 0.140625 -3.3125 0.0976562 -3.328125 0.046875 -3.359375 C -0.0546875 -3.460938 -0.0664062 -3.5625 0.015625 -3.65625 C 0.015625 -3.675781 0.140625 -3.84375 0.390625 -4.15625 C 0.648438 -4.46875 0.945312 -4.867188 1.28125 -5.359375 C 1.019531 -5.515625 0.8125 -5.6875 0.65625 -5.875 C 0.21875 -6.3125 -0.078125 -6.878906 -0.234375 -7.578125 C -0.390625 -8.234375 -0.347656 -8.828125 -0.109375 -9.359375 C 0.0664062 -9.742188 0.34375 -10.082031 0.71875 -10.375 C 1.09375 -10.675781 1.5 -10.828125 1.9375 -10.828125 C 2.257812 -10.828125 2.539062 -10.726562 2.78125 -10.53125 C 2.914062 -10.4375 3.035156 -10.28125 3.140625 -10.0625 C 3.242188 -9.851562 3.296875 -9.554688 3.296875 -9.171875 C 3.296875 -8.785156 3.179688 -8.296875 2.953125 -7.703125 C 2.816406 -7.316406 2.648438 -6.9375 2.453125 -6.5625 C 2.265625 -6.195312 2.070312 -5.851562 1.875 -5.53125 C 1.914062 -5.519531 1.957031 -5.503906 2 -5.484375 C 2.039062 -5.472656 2.082031 -5.460938 2.125 -5.453125 C 2.25 -5.410156 2.378906 -5.378906 2.515625 -5.359375 C 2.648438 -5.347656 2.789062 -5.34375 2.9375 -5.34375 C 3.332031 -5.34375 3.710938 -5.390625 4.078125 -5.484375 C 4.453125 -5.585938 4.785156 -5.703125 5.078125 -5.828125 C 5.367188 -5.953125 5.578125 -6.050781 5.703125 -6.125 C 5.785156 -6.1875 5.84375 -6.222656 5.875 -6.234375 C 5.882812 -6.242188 5.910156 -6.25 5.953125 -6.25 C 6.046875 -6.25 6.113281 -6.21875 6.15625 -6.15625 C 6.195312 -6.019531 6.164062 -5.925781 6.0625 -5.875 C 6.0625 -5.875 6.046875 -5.863281 6.015625 -5.84375 C 5.992188 -5.820312 5.953125 -5.796875 5.890625 -5.765625 C 5.617188 -5.609375 5.285156 -5.351562 4.890625 -5 C 4.503906 -4.65625 4.125 -4.269531 3.75 -3.84375 C 3.375 -3.425781 3.0625 -3.003906 2.8125 -2.578125 C 2.570312 -2.148438 2.457031 -1.773438 2.46875 -1.453125 C 2.46875 -1.109375 2.660156 -0.851562 3.046875 -0.6875 C 3.242188 -0.59375 3.445312 -0.546875 3.65625 -0.546875 C 4.09375 -0.546875 4.539062 -0.679688 5 -0.953125 C 5.46875 -1.222656 5.878906 -1.507812 6.234375 -1.8125 C 6.578125 -2.09375 6.882812 -2.367188 7.15625 -2.640625 C 7.425781 -2.921875 7.632812 -3.15625 7.78125 -3.34375 C 7.9375 -3.53125 8.015625 -3.625 8.015625 -3.625 C 8.078125 -3.675781 8.132812 -3.703125 8.1875 -3.703125 C 8.207031 -3.703125 8.242188 -3.6875 8.296875 -3.65625 Z M 1.484375 -5.71875 C 1.679688 -6.050781 1.875 -6.394531 2.0625 -6.75 C 2.257812 -7.101562 2.429688 -7.472656 2.578125 -7.859375 C 2.785156 -8.421875 2.882812 -8.90625 2.875 -9.3125 C 2.875 -9.726562 2.757812 -10.03125 2.53125 -10.21875 C 2.382812 -10.34375 2.1875 -10.40625 1.9375 -10.40625 C 1.65625 -10.40625 1.367188 -10.320312 1.078125 -10.15625 C 0.765625 -9.96875 0.492188 -9.660156 0.265625 -9.234375 C 0.046875 -8.804688 0.0078125 -8.28125 0.15625 -7.65625 C 0.351562 -6.789062 0.796875 -6.144531 1.484375 -5.71875 Z M 1.484375 -5.71875 "/></g></g></g><g fill="#000000" fill-opacity="1"><g transform="translate(151.257732, 216.859837)"><g><path d="M 5.953125 -3.640625 C 5.992188 -3.609375 6.019531 -3.5625 6.03125 -3.5 C 6.039062 -3.4375 6.023438 -3.382812 5.984375 -3.34375 C 5.628906 -2.90625 5.25 -2.460938 4.84375 -2.015625 C 4.445312 -1.578125 4.023438 -1.1875 3.578125 -0.84375 C 2.785156 -0.238281 1.984375 0.0625 1.171875 0.0625 C 0.859375 0.0625 0.550781 0.015625 0.25 -0.078125 C -0.0390625 -0.179688 -0.273438 -0.367188 -0.453125 -0.640625 C -0.617188 -0.921875 -0.6875 -1.234375 -0.65625 -1.578125 C -0.625 -1.929688 -0.546875 -2.273438 -0.421875 -2.609375 C -0.304688 -2.953125 -0.191406 -3.238281 -0.078125 -3.46875 C 0.015625 -3.65625 0.171875 -3.957031 0.390625 -4.375 C 0.609375 -4.800781 0.867188 -5.300781 1.171875 -5.875 C 1.472656 -6.457031 1.789062 -7.0625 2.125 -7.6875 C 2.46875 -8.3125 2.796875 -8.921875 3.109375 -9.515625 C 2.765625 -9.441406 2.457031 -9.382812 2.1875 -9.34375 C 1.914062 -9.300781 1.617188 -9.28125 1.296875 -9.28125 C 1.128906 -9.28125 0.945312 -9.289062 0.75 -9.3125 C 0.5625 -9.332031 0.347656 -9.347656 0.109375 -9.359375 C -0.00390625 -9.390625 -0.0625 -9.46875 -0.0625 -9.59375 C -0.03125 -9.738281 0.0507812 -9.796875 0.1875 -9.765625 C 0.382812 -9.734375 0.566406 -9.707031 0.734375 -9.6875 C 0.910156 -9.664062 1.09375 -9.65625 1.28125 -9.65625 C 1.601562 -9.65625 1.925781 -9.679688 2.25 -9.734375 C 2.582031 -9.785156 2.9375 -9.847656 3.3125 -9.921875 C 3.601562 -10.441406 3.863281 -10.914062 4.09375 -11.34375 C 4.332031 -11.769531 4.519531 -12.097656 4.65625 -12.328125 C 4.6875 -12.390625 4.742188 -12.421875 4.828125 -12.421875 C 4.867188 -12.421875 4.90625 -12.414062 4.9375 -12.40625 C 5.050781 -12.320312 5.070312 -12.226562 5 -12.125 C 4.875 -11.90625 4.703125 -11.601562 4.484375 -11.21875 C 4.273438 -10.832031 4.039062 -10.398438 3.78125 -9.921875 C 4.207031 -9.890625 4.644531 -9.816406 5.09375 -9.703125 C 5.144531 -9.691406 5.179688 -9.660156 5.203125 -9.609375 C 5.234375 -9.554688 5.238281 -9.503906 5.21875 -9.453125 C 5.1875 -9.316406 5.109375 -9.265625 4.984375 -9.296875 C 4.722656 -9.367188 4.472656 -9.414062 4.234375 -9.4375 C 4.003906 -9.46875 3.785156 -9.492188 3.578125 -9.515625 C 3.265625 -8.921875 2.929688 -8.300781 2.578125 -7.65625 C 2.234375 -7.007812 1.90625 -6.382812 1.59375 -5.78125 C 1.28125 -5.1875 1.003906 -4.671875 0.765625 -4.234375 C 0.535156 -3.796875 0.375 -3.476562 0.28125 -3.28125 C 0.195312 -3.101562 0.0976562 -2.863281 -0.015625 -2.5625 C -0.128906 -2.269531 -0.203125 -1.96875 -0.234375 -1.65625 C -0.273438 -1.34375 -0.234375 -1.070312 -0.109375 -0.84375 C 0.015625 -0.644531 0.195312 -0.507812 0.4375 -0.4375 C 0.6875 -0.375 0.925781 -0.34375 1.15625 -0.34375 C 1.71875 -0.34375 2.234375 -0.476562 2.703125 -0.75 C 3.171875 -1.019531 3.617188 -1.378906 4.046875 -1.828125 C 4.484375 -2.285156 4.929688 -2.773438 5.390625 -3.296875 C 5.441406 -3.359375 5.488281 -3.410156 5.53125 -3.453125 C 5.570312 -3.503906 5.625 -3.5625 5.6875 -3.625 C 5.726562 -3.664062 5.773438 -3.6875 5.828125 -3.6875 C 5.859375 -3.6875 5.898438 -3.671875 5.953125 -3.640625 Z M 5.953125 -3.640625 "/></g></g></g><g fill="#000000" fill-opacity="1"><g transform="translate(156.938587, 216.859837)"><g><path d="M 6.25 -3.640625 C 6.300781 -3.609375 6.328125 -3.5625 6.328125 -3.5 C 6.335938 -3.4375 6.320312 -3.382812 6.28125 -3.34375 C 5.976562 -2.988281 5.609375 -2.613281 5.171875 -2.21875 C 4.734375 -1.820312 4.25 -1.445312 3.71875 -1.09375 C 3.195312 -0.75 2.664062 -0.46875 2.125 -0.25 C 1.582031 -0.03125 1.066406 0.078125 0.578125 0.078125 C 0.273438 0.078125 0.00390625 0.0351562 -0.234375 -0.046875 C -0.484375 -0.128906 -0.679688 -0.253906 -0.828125 -0.421875 C -1.128906 -0.753906 -1.160156 -1.164062 -0.921875 -1.65625 C -0.890625 -1.726562 -0.832031 -1.765625 -0.75 -1.765625 C -0.707031 -1.765625 -0.671875 -1.757812 -0.640625 -1.75 C -0.523438 -1.6875 -0.492188 -1.597656 -0.546875 -1.484375 C -0.703125 -1.160156 -0.695312 -0.894531 -0.53125 -0.6875 C -0.34375 -0.488281 -0.0234375 -0.375 0.421875 -0.34375 C 0.921875 -0.34375 1.347656 -0.554688 1.703125 -0.984375 C 2.066406 -1.410156 2.328125 -1.988281 2.484375 -2.71875 C 2.597656 -3.21875 2.597656 -3.742188 2.484375 -4.296875 C 2.367188 -4.847656 2.234375 -5.351562 2.078125 -5.8125 C 1.898438 -5.539062 1.660156 -5.1875 1.359375 -4.75 C 1.066406 -4.320312 0.695312 -3.835938 0.25 -3.296875 C 0.207031 -3.253906 0.148438 -3.234375 0.078125 -3.234375 C 0.0546875 -3.234375 0.0351562 -3.234375 0.015625 -3.234375 C -0.00390625 -3.242188 -0.015625 -3.25 -0.015625 -3.25 C -0.117188 -3.363281 -0.128906 -3.460938 -0.046875 -3.546875 C 0.453125 -4.160156 0.859375 -4.703125 1.171875 -5.171875 C 1.484375 -5.640625 1.722656 -6.007812 1.890625 -6.28125 C 1.835938 -6.4375 1.789062 -6.570312 1.75 -6.6875 C 1.707031 -6.800781 1.664062 -6.898438 1.625 -6.984375 C 1.59375 -7.054688 1.566406 -7.117188 1.546875 -7.171875 C 1.523438 -7.222656 1.5 -7.273438 1.46875 -7.328125 C 1.238281 -7.921875 1.179688 -8.507812 1.296875 -9.09375 C 1.367188 -9.46875 1.53125 -9.835938 1.78125 -10.203125 C 2.039062 -10.566406 2.390625 -10.75 2.828125 -10.75 C 3.023438 -10.75 3.207031 -10.691406 3.375 -10.578125 C 3.550781 -10.472656 3.664062 -10.320312 3.71875 -10.125 C 3.894531 -9.601562 3.691406 -8.757812 3.109375 -7.59375 C 2.960938 -7.3125 2.820312 -7.050781 2.6875 -6.8125 C 2.550781 -6.570312 2.441406 -6.382812 2.359375 -6.25 C 2.554688 -5.757812 2.722656 -5.1875 2.859375 -4.53125 C 3.003906 -3.875 3.015625 -3.242188 2.890625 -2.640625 C 2.710938 -1.773438 2.398438 -1.097656 1.953125 -0.609375 C 2.484375 -0.828125 2.992188 -1.101562 3.484375 -1.4375 C 3.984375 -1.769531 4.445312 -2.125 4.875 -2.5 C 5.3125 -2.882812 5.671875 -3.257812 5.953125 -3.625 C 5.992188 -3.664062 6.050781 -3.6875 6.125 -3.6875 C 6.15625 -3.6875 6.195312 -3.671875 6.25 -3.640625 Z M 1.984375 -7.15625 C 2.003906 -7.09375 2.03125 -7.023438 2.0625 -6.953125 C 2.101562 -6.890625 2.140625 -6.8125 2.171875 -6.71875 C 2.359375 -7.03125 2.554688 -7.394531 2.765625 -7.8125 C 2.972656 -8.238281 3.140625 -8.648438 3.265625 -9.046875 C 3.390625 -9.441406 3.414062 -9.757812 3.34375 -10 C 3.300781 -10.144531 3.210938 -10.238281 3.078125 -10.28125 C 2.992188 -10.320312 2.90625 -10.34375 2.8125 -10.34375 C 2.6875 -10.34375 2.578125 -10.3125 2.484375 -10.25 C 2.390625 -10.195312 2.304688 -10.144531 2.234375 -10.09375 C 1.992188 -9.863281 1.816406 -9.503906 1.703125 -9.015625 C 1.597656 -8.523438 1.644531 -8.007812 1.84375 -7.46875 C 1.863281 -7.4375 1.882812 -7.390625 1.90625 -7.328125 C 1.9375 -7.273438 1.960938 -7.21875 1.984375 -7.15625 Z M 1.984375 -7.15625 "/></g></g></g><g fill="#d9d9d9" fill-opacity="1"><g transform="translate(89.71908, 153.507762)"><g><path d="M 44.828125 -12.796875 C 44.972656 -12.691406 45.046875 -12.523438 45.046875 -12.296875 C 45.046875 -12.078125 44.972656 -11.894531 44.828125 -11.75 C 44.722656 -11.644531 44.609375 -11.53125 44.484375 -11.40625 C 44.359375 -11.28125 44.25 -11.144531 44.15625 -11 C 42.550781 -9.101562 40.972656 -7.316406 39.421875 -5.640625 C 37.878906 -3.972656 36.132812 -2.613281 34.1875 -1.5625 C 32.25 -0.519531 29.832031 0 26.9375 0 C 23.945312 0 21.265625 -0.5 18.890625 -1.5 C 16.523438 -2.5 14.242188 -3.570312 12.046875 -4.71875 C 11.703125 -4.914062 11.351562 -5.085938 11 -5.234375 C 10.15625 -3.992188 9.21875 -2.957031 8.1875 -2.125 C 7.164062 -1.300781 5.859375 -0.890625 4.265625 -0.890625 C 3.316406 -0.890625 2.578125 -1.085938 2.046875 -1.484375 C 1.523438 -1.890625 1.140625 -2.21875 0.890625 -2.46875 C 0.296875 -3.269531 -0.0078125 -4.207031 -0.03125 -5.28125 C -0.0625 -6.351562 0.222656 -7.285156 0.828125 -8.078125 C 1.078125 -8.328125 1.445312 -8.640625 1.9375 -9.015625 C 2.4375 -9.390625 3.113281 -9.578125 3.96875 -9.578125 C 4.914062 -9.578125 6.050781 -9.265625 7.375 -8.640625 C 8.695312 -8.015625 9.753906 -7.503906 10.546875 -7.109375 C 11.441406 -8.453125 12.390625 -10.054688 13.390625 -11.921875 C 14.390625 -13.796875 15.410156 -15.789062 16.453125 -17.90625 C 17.503906 -20.03125 18.554688 -22.09375 19.609375 -24.09375 C 19.703125 -24.195312 19.785156 -24.320312 19.859375 -24.46875 C 19.941406 -24.613281 20.003906 -24.738281 20.046875 -24.84375 C 18.804688 -24.488281 17.585938 -24.265625 16.390625 -24.171875 C 16.085938 -24.117188 15.796875 -24.09375 15.515625 -24.09375 C 15.242188 -24.09375 14.984375 -24.09375 14.734375 -24.09375 C 11.890625 -24.09375 9.398438 -24.890625 7.265625 -26.484375 C 6.859375 -26.785156 6.804688 -27.113281 7.109375 -27.46875 C 7.304688 -27.664062 7.503906 -27.765625 7.703125 -27.765625 C 7.753906 -27.765625 7.878906 -27.710938 8.078125 -27.609375 C 9.078125 -26.859375 10.148438 -26.320312 11.296875 -26 C 12.441406 -25.675781 13.585938 -25.515625 14.734375 -25.515625 C 15.835938 -25.515625 16.910156 -25.613281 17.953125 -25.8125 C 19.003906 -26.007812 20.003906 -26.285156 20.953125 -26.640625 C 22.703125 -29.984375 24.472656 -33.238281 26.265625 -36.40625 C 28.054688 -39.570312 29.800781 -42.378906 31.5 -44.828125 C 32.144531 -45.773438 32.992188 -46.867188 34.046875 -48.109375 C 35.097656 -49.359375 36.257812 -50.46875 37.53125 -51.4375 C 38.800781 -52.414062 40.082031 -52.90625 41.375 -52.90625 C 42.03125 -52.90625 42.65625 -52.753906 43.25 -52.453125 C 44.695312 -51.859375 45.472656 -50.757812 45.578125 -49.15625 C 45.671875 -47.757812 45.21875 -46.113281 44.21875 -44.21875 C 43.226562 -42.320312 41.785156 -40.300781 39.890625 -38.15625 C 37.441406 -35.414062 34.707031 -32.945312 31.6875 -30.75 C 28.664062 -28.5625 25.4375 -26.816406 22 -25.515625 C 21.800781 -25.171875 21.613281 -24.820312 21.4375 -24.46875 C 21.257812 -24.113281 21.070312 -23.765625 20.875 -23.421875 C 19.53125 -20.878906 18.234375 -18.285156 16.984375 -15.640625 C 15.734375 -12.992188 14.535156 -10.722656 13.390625 -8.828125 C 13.140625 -8.378906 12.878906 -7.96875 12.609375 -7.59375 C 12.335938 -7.21875 12.078125 -6.832031 11.828125 -6.4375 C 11.972656 -6.382812 12.117188 -6.320312 12.265625 -6.25 C 12.421875 -6.175781 12.570312 -6.085938 12.71875 -5.984375 C 14.914062 -4.835938 17.125 -3.789062 19.34375 -2.84375 C 21.5625 -1.894531 24.09375 -1.421875 26.9375 -1.421875 C 29.53125 -1.421875 31.820312 -2.019531 33.8125 -3.21875 C 35.8125 -4.414062 37.570312 -5.835938 39.09375 -7.484375 C 40.613281 -9.128906 41.945312 -10.625 43.09375 -11.96875 C 43.195312 -12.070312 43.3125 -12.195312 43.4375 -12.34375 C 43.5625 -12.5 43.675781 -12.625 43.78125 -12.71875 C 43.976562 -12.914062 44.175781 -13.015625 44.375 -13.015625 C 44.519531 -13.015625 44.671875 -12.941406 44.828125 -12.796875 Z M 32.703125 -44 C 31.109375 -41.75 29.5 -39.191406 27.875 -36.328125 C 26.25 -33.460938 24.640625 -30.507812 23.046875 -27.46875 C 23.546875 -27.71875 24.019531 -27.941406 24.46875 -28.140625 C 24.914062 -28.335938 25.335938 -28.535156 25.734375 -28.734375 C 28.078125 -29.984375 30.382812 -31.515625 32.65625 -33.328125 C 34.925781 -35.148438 36.960938 -37.085938 38.765625 -39.140625 C 40.503906 -41.078125 41.859375 -42.929688 42.828125 -44.703125 C 43.804688 -46.472656 44.25 -47.9375 44.15625 -49.09375 C 44.101562 -49.832031 43.789062 -50.414062 43.21875 -50.84375 C 42.644531 -51.269531 42.007812 -51.484375 41.3125 -51.484375 C 40.257812 -51.484375 39.160156 -51.007812 38.015625 -50.0625 C 36.867188 -49.113281 35.832031 -48.050781 34.90625 -46.875 C 33.976562 -45.707031 33.242188 -44.75 32.703125 -44 Z M 6.515625 -2.84375 C 7.359375 -3.195312 8.429688 -4.21875 9.734375 -5.90625 C 9.328125 -6.15625 8.757812 -6.453125 8.03125 -6.796875 C 7.3125 -7.148438 6.578125 -7.460938 5.828125 -7.734375 C 5.085938 -8.015625 4.492188 -8.15625 4.046875 -8.15625 C 3.140625 -8.15625 2.460938 -7.832031 2.015625 -7.1875 C 1.617188 -6.6875 1.421875 -6.0625 1.421875 -5.3125 C 1.421875 -4.5625 1.617188 -3.914062 2.015625 -3.375 C 2.566406 -2.664062 3.316406 -2.3125 4.265625 -2.3125 C 4.609375 -2.3125 4.96875 -2.363281 5.34375 -2.46875 C 5.71875 -2.570312 6.109375 -2.695312 6.515625 -2.84375 Z M 6.515625 -2.84375 "/></g></g></g><g fill="#d9d9d9" fill-opacity="1"><g transform="translate(133.489523, 153.507762)"><g><path d="M 30.453125 -48.9375 C 33.691406 -48.4375 35.921875 -47.398438 37.140625 -45.828125 C 38.367188 -44.253906 38.929688 -42.671875 38.828125 -41.078125 C 38.785156 -39.984375 38.390625 -38.820312 37.640625 -37.59375 C 36.890625 -36.375 35.867188 -35.765625 34.578125 -35.765625 C 34.078125 -35.671875 33.828125 -35.894531 33.828125 -36.4375 C 33.828125 -36.84375 34.050781 -37.09375 34.5 -37.1875 C 35.25 -37.238281 35.910156 -37.648438 36.484375 -38.421875 C 37.054688 -39.191406 37.367188 -40.101562 37.421875 -41.15625 C 37.460938 -41.550781 37.359375 -42.1875 37.109375 -43.0625 C 36.859375 -43.9375 36.222656 -44.804688 35.203125 -45.671875 C 34.179688 -46.546875 32.523438 -47.160156 30.234375 -47.515625 C 30.035156 -47.566406 29.820312 -47.59375 29.59375 -47.59375 C 29.363281 -47.59375 29.128906 -47.59375 28.890625 -47.59375 C 26.785156 -47.59375 24.695312 -47.054688 22.625 -45.984375 C 20.5625 -44.910156 18.816406 -43.472656 17.390625 -41.671875 C 15.972656 -39.878906 15.164062 -37.882812 14.96875 -35.6875 C 14.914062 -34.894531 14.925781 -34.046875 15 -33.140625 C 15.070312 -32.242188 15.382812 -31.375 15.9375 -30.53125 C 17.332031 -28.382812 20.328125 -27.035156 24.921875 -26.484375 C 25.367188 -26.484375 25.59375 -26.257812 25.59375 -25.8125 C 25.59375 -25.414062 25.367188 -25.164062 24.921875 -25.0625 L 23.578125 -25 C 19.984375 -25 16.601562 -24.472656 13.4375 -23.421875 C 10.269531 -22.367188 7.507812 -20.398438 5.15625 -17.515625 C 3.507812 -15.460938 2.4375 -13.351562 1.9375 -11.1875 C 1.445312 -9.019531 1.375 -7.210938 1.71875 -5.765625 C 2.113281 -4.066406 2.875 -2.691406 4 -1.640625 C 5.125 -0.597656 6.445312 0.144531 7.96875 0.59375 C 9.488281 1.039062 11.023438 1.265625 12.578125 1.265625 C 12.816406 1.265625 13.050781 1.253906 13.28125 1.234375 C 13.507812 1.210938 13.722656 1.203125 13.921875 1.203125 C 15.566406 1.046875 17.257812 0.679688 19 0.109375 C 20.75 -0.460938 22.394531 -1.257812 23.9375 -2.28125 C 25.488281 -3.300781 26.757812 -4.519531 27.75 -5.9375 C 28.75 -7.363281 29.328125 -9 29.484375 -10.84375 C 29.628906 -13.539062 28.78125 -15.488281 26.9375 -16.6875 C 26.132812 -17.28125 25.132812 -17.578125 23.9375 -17.578125 C 22.5 -17.578125 21.078125 -17.140625 19.671875 -16.265625 C 18.273438 -15.398438 17.53125 -14.171875 17.4375 -12.578125 C 17.4375 -11.628906 17.75 -10.703125 18.375 -9.796875 C 19 -8.898438 19.832031 -8.453125 20.875 -8.453125 C 21.675781 -8.453125 22.523438 -8.753906 23.421875 -9.359375 C 23.617188 -9.453125 23.742188 -9.5 23.796875 -9.5 C 23.992188 -9.5 24.191406 -9.398438 24.390625 -9.203125 C 24.640625 -8.859375 24.59375 -8.507812 24.25 -8.15625 C 23.644531 -7.757812 23.066406 -7.472656 22.515625 -7.296875 C 21.972656 -7.117188 21.453125 -7.03125 20.953125 -7.03125 C 20.503906 -7.03125 20.09375 -7.09375 19.71875 -7.21875 C 19.34375 -7.34375 19.03125 -7.457031 18.78125 -7.5625 C 17.9375 -8.007812 17.25 -8.691406 16.71875 -9.609375 C 16.195312 -10.535156 15.960938 -11.546875 16.015625 -12.640625 C 16.109375 -15.035156 17.40625 -16.832031 19.90625 -18.03125 C 21.25 -18.675781 22.59375 -19 23.9375 -19 C 25.382812 -19 26.660156 -18.628906 27.765625 -17.890625 C 30.003906 -16.390625 31.078125 -14.019531 30.984375 -10.78125 C 30.773438 -8.726562 30.132812 -6.90625 29.0625 -5.3125 C 28 -3.71875 26.640625 -2.359375 24.984375 -1.234375 C 23.335938 -0.109375 21.566406 0.773438 19.671875 1.421875 C 17.785156 2.066406 15.914062 2.46875 14.0625 2.625 C 13.8125 2.664062 13.550781 2.6875 13.28125 2.6875 C 13.007812 2.6875 12.75 2.6875 12.5 2.6875 C 9.707031 2.6875 7.160156 2.050781 4.859375 0.78125 C 2.566406 -0.488281 1.046875 -2.570312 0.296875 -5.46875 C -0.0976562 -7.3125 0 -9.351562 0.59375 -11.59375 C 1.34375 -14.539062 2.648438 -17.035156 4.515625 -19.078125 C 6.390625 -21.128906 8.632812 -22.765625 11.25 -23.984375 C 13.875 -25.203125 16.609375 -25.960938 19.453125 -26.265625 C 17.253906 -27.109375 15.679688 -28.253906 14.734375 -29.703125 C 14.035156 -30.753906 13.632812 -31.816406 13.53125 -32.890625 C 13.4375 -33.960938 13.414062 -34.945312 13.46875 -35.84375 C 13.71875 -38.289062 14.628906 -40.5 16.203125 -42.46875 C 17.773438 -44.4375 19.691406 -46.019531 21.953125 -47.21875 C 24.222656 -48.414062 26.535156 -49.015625 28.890625 -49.015625 C 29.128906 -49.015625 29.382812 -49.015625 29.65625 -49.015625 C 29.9375 -49.015625 30.203125 -48.988281 30.453125 -48.9375 Z M 30.453125 -48.9375 "/></g></g></g><g fill="#000000" fill-opacity="1"><g transform="translate(201.961866, 241.327929)"><g><path d="M 36.140625 -46.625 C 36.640625 -46.414062 36.738281 -46.085938 36.4375 -45.640625 C 34.695312 -42.453125 33.078125 -39.410156 31.578125 -36.515625 C 30.078125 -33.617188 28.65625 -30.925781 27.3125 -28.4375 C 24.71875 -23.445312 22.4375 -19.128906 20.46875 -15.484375 C 18.5 -11.847656 16.691406 -8.878906 15.046875 -6.578125 C 11.953125 -2.242188 8.90625 -0.078125 5.90625 -0.078125 C 5.8125 -0.078125 5.6875 -0.0859375 5.53125 -0.109375 C 5.382812 -0.140625 5.238281 -0.15625 5.09375 -0.15625 C 2.84375 -0.40625 1.320312 -1.625 0.53125 -3.8125 C 0.0703125 -5.0625 -0.00390625 -6.410156 0.296875 -7.859375 C 0.597656 -9.359375 1.296875 -10.601562 2.390625 -11.59375 C 3.492188 -12.59375 4.816406 -13.09375 6.359375 -13.09375 C 7.304688 -13.09375 8.226562 -12.921875 9.125 -12.578125 C 9.53125 -12.421875 9.679688 -12.117188 9.578125 -11.671875 C 9.429688 -11.328125 9.179688 -11.15625 8.828125 -11.15625 C 8.773438 -11.15625 8.738281 -11.164062 8.71875 -11.1875 C 8.695312 -11.207031 8.660156 -11.21875 8.609375 -11.21875 C 7.710938 -11.519531 6.9375 -11.671875 6.28125 -11.671875 C 5.582031 -11.671875 4.984375 -11.546875 4.484375 -11.296875 C 3.984375 -11.046875 3.5625 -10.75 3.21875 -10.40625 C 2.46875 -9.707031 1.96875 -8.769531 1.71875 -7.59375 C 1.46875 -6.425781 1.519531 -5.316406 1.875 -4.265625 C 2.019531 -3.816406 2.34375 -3.28125 2.84375 -2.65625 C 3.34375 -2.03125 4.140625 -1.671875 5.234375 -1.578125 C 7.285156 -1.578125 8.957031 -2.148438 10.25 -3.296875 C 11.550781 -4.441406 12.75 -5.8125 13.84375 -7.40625 C 15.4375 -9.65625 17.21875 -12.585938 19.1875 -16.203125 C 21.164062 -19.816406 23.453125 -24.117188 26.046875 -29.109375 C 27.390625 -31.597656 28.804688 -34.289062 30.296875 -37.1875 C 31.796875 -40.082031 33.421875 -43.148438 35.171875 -46.390625 C 35.316406 -46.585938 35.539062 -46.6875 35.84375 -46.6875 C 35.988281 -46.6875 36.085938 -46.664062 36.140625 -46.625 Z M 55.296875 -45.578125 C 56.441406 -43.222656 56.515625 -40.726562 55.515625 -38.09375 C 54.523438 -35.539062 52.96875 -33.09375 50.84375 -30.75 C 48.726562 -28.40625 46.3125 -26.4375 43.59375 -24.84375 C 40.875 -23.25 38.140625 -22.25 35.390625 -21.84375 C 35.140625 -21.84375 34.878906 -21.832031 34.609375 -21.8125 C 34.335938 -21.789062 34.078125 -21.78125 33.828125 -21.78125 C 31.878906 -21.78125 30.53125 -22.300781 29.78125 -23.34375 C 28.882812 -24.59375 28.957031 -26.335938 30 -28.578125 C 30.351562 -29.179688 30.738281 -29.707031 31.15625 -30.15625 C 31.582031 -30.601562 32.019531 -30.976562 32.46875 -31.28125 C 33.269531 -31.675781 33.972656 -31.875 34.578125 -31.875 C 34.921875 -31.875 35.164062 -31.847656 35.3125 -31.796875 C 36.863281 -31.398438 37.710938 -30.101562 37.859375 -27.90625 C 37.859375 -27.40625 37.632812 -27.15625 37.1875 -27.15625 C 36.6875 -27.15625 36.4375 -27.382812 36.4375 -27.84375 C 36.34375 -29.28125 35.84375 -30.125 34.9375 -30.375 C 34.894531 -30.375 34.847656 -30.382812 34.796875 -30.40625 C 34.742188 -30.4375 34.671875 -30.453125 34.578125 -30.453125 C 34.117188 -30.453125 33.585938 -30.25 32.984375 -29.84375 C 32.390625 -29.445312 31.820312 -28.800781 31.28125 -27.90625 C 31.03125 -27.363281 30.828125 -26.742188 30.671875 -26.046875 C 30.523438 -25.347656 30.628906 -24.75 30.984375 -24.25 C 31.429688 -23.59375 32.351562 -23.265625 33.75 -23.265625 C 35.789062 -23.265625 37.867188 -23.710938 39.984375 -24.609375 C 42.109375 -25.515625 44.101562 -26.703125 45.96875 -28.171875 C 47.84375 -29.640625 49.503906 -31.285156 50.953125 -33.109375 C 52.398438 -34.929688 53.472656 -36.765625 54.171875 -38.609375 C 55.023438 -40.859375 54.976562 -42.953125 54.03125 -44.890625 C 53.28125 -46.441406 52.15625 -47.628906 50.65625 -48.453125 C 49.15625 -49.273438 47.546875 -49.847656 45.828125 -50.171875 C 44.109375 -50.492188 42.453125 -50.65625 40.859375 -50.65625 C 39.054688 -50.65625 37.195312 -50.46875 35.28125 -50.09375 C 33.363281 -49.71875 31.53125 -49.09375 29.78125 -48.21875 C 28.03125 -47.351562 26.554688 -46.234375 25.359375 -44.859375 C 24.171875 -43.484375 23.398438 -41.773438 23.046875 -39.734375 C 23.046875 -39.234375 22.769531 -39.035156 22.21875 -39.140625 C 21.820312 -39.234375 21.625 -39.503906 21.625 -39.953125 C 22.019531 -42.203125 22.851562 -44.097656 24.125 -45.640625 C 25.40625 -47.191406 26.96875 -48.441406 28.8125 -49.390625 C 30.65625 -50.335938 32.609375 -51.019531 34.671875 -51.4375 C 36.742188 -51.863281 38.78125 -52.078125 40.78125 -52.078125 C 42.53125 -52.078125 44.363281 -51.890625 46.28125 -51.515625 C 48.195312 -51.140625 49.976562 -50.488281 51.625 -49.5625 C 53.269531 -48.644531 54.492188 -47.316406 55.296875 -45.578125 Z M 55.296875 -45.578125 "/></g></g></g><g fill="#000000" fill-opacity="1"><g transform="translate(246.405703, 241.327929)"><g><path d="M 17.203125 -12.796875 C 17.609375 -12.441406 17.632812 -12.09375 17.28125 -11.75 C 16.4375 -10.75 15.398438 -9.570312 14.171875 -8.21875 C 12.953125 -6.875 11.617188 -5.550781 10.171875 -4.25 C 8.722656 -2.957031 7.238281 -1.890625 5.71875 -1.046875 C 4.195312 -0.203125 2.710938 0.21875 1.265625 0.21875 C -0.078125 0.21875 -1.097656 -0.226562 -1.796875 -1.125 C -2.347656 -1.875 -2.632812 -2.769531 -2.65625 -3.8125 C -2.675781 -4.863281 -2.535156 -5.945312 -2.234375 -7.0625 C -1.941406 -8.1875 -1.59375 -9.210938 -1.1875 -10.140625 C -0.789062 -11.066406 -0.46875 -11.753906 -0.21875 -12.203125 C -0.0195312 -12.597656 0.335938 -13.304688 0.859375 -14.328125 C 1.378906 -15.347656 1.960938 -16.429688 2.609375 -17.578125 C 3.265625 -18.734375 3.816406 -19.742188 4.265625 -20.609375 C 4.710938 -21.484375 4.960938 -21.972656 5.015625 -22.078125 C 5.160156 -22.273438 5.382812 -22.375 5.6875 -22.375 C 5.832031 -22.375 5.957031 -22.347656 6.0625 -22.296875 C 6.457031 -22.097656 6.53125 -21.773438 6.28125 -21.328125 C 6.28125 -21.328125 6.054688 -20.898438 5.609375 -20.046875 C 5.160156 -19.203125 4.613281 -18.179688 3.96875 -16.984375 C 3.320312 -15.785156 2.722656 -14.675781 2.171875 -13.65625 C 1.617188 -12.632812 1.242188 -11.925781 1.046875 -11.53125 C 0.148438 -9.78125 -0.519531 -7.96875 -0.96875 -6.09375 C -1.414062 -4.226562 -1.316406 -2.867188 -0.671875 -2.015625 C -0.328125 -1.515625 0.316406 -1.265625 1.265625 -1.265625 C 1.515625 -1.265625 1.765625 -1.273438 2.015625 -1.296875 C 2.265625 -1.328125 2.515625 -1.367188 2.765625 -1.421875 C 4.265625 -1.722656 6.1875 -2.859375 8.53125 -4.828125 C 10.875 -6.796875 13.441406 -9.425781 16.234375 -12.71875 C 16.390625 -12.863281 16.566406 -12.9375 16.765625 -12.9375 C 16.859375 -12.9375 17.003906 -12.890625 17.203125 -12.796875 Z M 7.265625 -25 C 6.804688 -25.289062 6.703125 -25.613281 6.953125 -25.96875 L 8 -27.984375 C 8.101562 -28.234375 8.304688 -28.359375 8.609375 -28.359375 C 8.753906 -28.359375 8.878906 -28.332031 8.984375 -28.28125 C 9.378906 -28.132812 9.476562 -27.835938 9.28125 -27.390625 L 8.234375 -25.359375 C 8.078125 -25.066406 7.851562 -24.921875 7.5625 -24.921875 C 7.507812 -24.921875 7.457031 -24.929688 7.40625 -24.953125 C 7.351562 -24.984375 7.304688 -25 7.265625 -25 Z M 7.265625 -25 "/></g></g></g></svg>